<svg xmlns="http://www.w3.org/2000/svg" viewBox="0 0 235.67 102.36"><defs><style>.cls-1{fill:#09c492;}</style></defs><title>Favicon</title><g id="Capa_2" data-name="Capa 2"><g id="Capa_4" data-name="Capa 4"><path class="cls-1" d="M203.71,27.78A94.42,94.42,0,0,0,175.86,0l-21,32.75-1.64-.37a161.34,161.34,0,0,0-70.71,0l-1.64.37L59.81,0A94.42,94.42,0,0,0,32,27.78C15.37,53.39,15.7,80.25,17.74,95.16H217.93C220,80.25,220.3,53.39,203.71,27.78ZM70.48,76.71c-4,0-7.24-4.81-7.24-10.73s3.24-10.72,7.24-10.72S77.7,60.06,77.7,66,74.46,76.71,70.48,76.71Zm55.77-4.81h0L126,72h0a10.93,10.93,0,0,0-7.18,6.16s0,0,0,0a1.55,1.55,0,0,0-.08.17,1,1,0,0,1-.86.51,1,1,0,0,1-.86-.51.55.55,0,0,0-.08-.17s0,0,0,0A10.93,10.93,0,0,0,109.7,72a1.66,1.66,0,0,0-.3-.08,1,1,0,0,1-.57-.9.89.89,0,0,1,.14-.49.6.6,0,0,1,.14-.19,11,11,0,0,1,17.56.14,1.07,1.07,0,0,1,.16.54A1,1,0,0,1,126.25,71.9Zm38.94,4.81c-4,0-7.22-4.81-7.22-10.73s3.24-10.72,7.22-10.72,7.24,4.79,7.24,10.72S169.19,76.71,165.19,76.71Z"/><circle class="cls-1" cx="228.46" cy="95.16" r="7.2"/><circle class="cls-1" cx="7.2" cy="95.16" r="7.2"/></g></g></svg>